# xmcd
#
# Track frame offsets:
# 150
# 16133
# 30525
# 41469
# 55230
# 81845
# 97761
# 110922
# 125854
# 140338
# 155743
# 166796
# 178790
# 194410
# 210653
# 223011
# 240196
# 255105
# 266137
# 286959
# 301647
# 317114
# 336564
#
# Disc length: 4643 seconds
#
#
# Revision: 0
# Processed by: cddbd v1.5.2PL0 Copyright (c) Steve Scherf et al.
# Submitted via: FreeRIP 2.951 
#
DISCID=44122117
DTITLE=MISTURA FINA - MISTURA FINA
DYEAR=1900
DGENRE=Blues
TTITLE0=SWEET MEMORIES - RAY CHARLES
TTITLE1=DOWN BY THE RIVERSIDE - LOUIS ARMSTRONG
TTITLE2=BROKEN HEART MELODY - SARAH VAUGHAN
TTITLE3=NITGHT AND DAY - ELLA FITZGERALD
TTITLE4=HEAVEN - LOUIS ARMSTRONG/ELLA FITZGERALD
TTITLE5=LET'S DO IT (LET'S FALL IN LOVE) - ELLA FITZGERALD
TTITLE6=SOMEWHERE BEYOND THE SEA - FRANK SINATRA
TTITLE7=FEVER - ELLA FITZGERALD
TTITLE8=SUMMERTIME - SARAH VAUGHAN
TTITLE9=I LOVE PARIS (LA VIE EN ROSE) - LOUIS ARMSTRONG/ELLA FITZGERALD
TTITLE10=WHAT A DIFFERENCE A DAY MADE - BILLY HOLLIDAY
TTITLE11=ALWAYS - SARAH VAUGHAN/BILLY ECKSTINE
TTITLE12=MOONLIGHT SERENADE - FRANK SINATRA
TTITLE13=EVERY TIME WE SAY GOODBYE - ELLA FITZGERALD
TTITLE14=AS TIME GOES BY - DOOLEY WILSON
TTITLE15=AM I BLUE - ELLA FITZGERALD
TTITLE16=MOON RIVER -  FRANK SINATRA
TTITLE17=NATURE BOY - ELLA FITZGERALD
TTITLE18=MY WAY - FRANK SINATRA
TTITLE19=HOOCHIE COOCHIE MAN - ERIC CLAPTON
TTITLE20=NEW YORK, NEW YORK - FRANK SINATRA
TTITLE21=SOMEWHERE OVER THE RAINBOW - ELLA FITZGERALD
TTITLE22=STRANGERS IN THE NIGHT - FRANK SINATRA
EXTD=
EXTT0=
EXTT1=
EXTT2=
EXTT3=
EXTT4=
EXTT5=
EXTT6=
EXTT7=
EXTT8=
EXTT9=
EXTT10=
EXTT11=
EXTT12=
EXTT13=
EXTT14=
EXTT15=
EXTT16=
EXTT17=
EXTT18=
EXTT19=
EXTT20=
EXTT21=
EXTT22=
PLAYORDER=
